<?xml version="1.0" encoding="utf-8"?>
<!-- Generator: Adobe Illustrator 23.0.2, SVG Export Plug-In . SVG Version: 6.00 Build 0)  -->
<svg version="1.1" id="Layer_1" xmlns="http://www.w3.org/2000/svg" xmlns:xlink="http://www.w3.org/1999/xlink" x="0px" y="0px"
	 viewBox="0 0 166.4335 235.3092" enable-background="new 0 0 166.4335 235.3092" xml:space="preserve">
<g>
	<path d="M127.5067,76.9879c11.7246,4.1133,24.5615-2.0566,28.6748-13.7793c4.1133-11.7221-2.0557-24.5605-13.7793-28.6728
		c-11.7226-4.1138-24.5605,2.0556-28.6738,13.7788C109.6151,60.0368,115.785,72.8756,127.5067,76.9879z"/>
	<path d="M110.2811,170.7477c1.1201,0.1074,2.1646,0.1934,3.1377,0.2363c0.73,0.1455,1.4839,0.2246,2.2564,0.2246
		c8.9155-0.0312,16.0244,1.9102,20.1762,5.3506c2.1363,1.7471,3.836,3.8692,5.229,7.1924c1.3721,3.3135,2.3535,7.9229,2.3516,14.249
		c0.0019,5.4463-0.7349,12.1358-2.4893,20.125c-1.3593,6.2051,2.5689,12.3369,8.7735,13.6963
		c0.8291,0.1817,1.6572,0.2686,2.4726,0.2686c5.2847,0,10.045-3.6651,11.2227-9.0401c2.0278-9.2744,3.02-17.5527,3.022-25.0498
		c0-8.6738-1.3384-16.3506-4.0933-23.0293c-2.4443-6.0449-6.1689-11.1045-10.5884-15.0547
		c-1.8354,1.6758-4.2441,2.6231-6.748,2.6231c-2.4844,0-4.8677-0.918-6.7119-2.5859c-4.0074-3.6084-7.4375-7.2256-10.3804-10.793
		c-1.1001-0.1826-2.2027-0.335-3.3067-0.461c0.104-1.0957,0.2281-2.1933,0.3731-3.2939
		c-12.8662-17.4082-14.4307-33.1016-14.3726-40.0508c0.0044-6.7612,1.2891-11.1626,1.5459-11.9746
		c1.3345-4.1675,5.1621-6.9604,9.5259-6.9604c1.0298,0,2.0557,0.1591,3.0464,0.4765c5.1948,1.6597,8.1147,7.2525,6.5127,12.4663
		l-0.0205,0.0786c-0.0542,0.2154-0.1348,0.5738-0.2217,1.0733c-0.1782,1.0195-0.3896,2.6919-0.3877,4.855
		c0.043,3.5713,0.5664,7.1181,1.5444,10.6357c1.0376-3.29,2.0489-6.4082,2.9371-9.2598c3.9326-9.583,1.4921-21.832-6.7637-24.873
		c-8.2539-3.041-21.0606,0.2256-27.6524,14.2354c-8.9531,19.3173-11.831,32.2128-11.6689,54.5771
		C90.368,167.0309,101.1581,169.8707,110.2811,170.7477z"/>
	<path d="M129.0228,100.1696c0.0996-0.5674,0.1929-0.9732,0.2485-1.1968c0.0269-0.1118,0.0455-0.1797,0.0518-0.1987h-0.0005
		c1.2881-4.1846-1.0278-8.6363-5.2085-9.9727c-4.209-1.3457-8.7099,0.9751-10.0561,5.1821
		c-0.1944,0.6148-1.4492,4.7637-1.4532,11.3892c-0.0747,8.9902,2.4908,22.6074,12.7852,37.2109
		c1.6724,2.3721,3.5498,4.7696,5.6523,7.1787c2.5284,2.8965,5.3731,5.8077,8.5933,8.7071c1.5308,1.3877,3.4522,2.0713,5.3677,2.0713
		c1.8657,0,3.7226-0.6543,5.2109-1.9326c0.2505-0.2159,0.4937-0.4444,0.7217-0.6954c2.9668-3.2734,2.7183-8.331-0.5547-11.2988
		c-11.0674-10.1045-16.5766-19.4814-19.2798-27.2344c-1.9692-5.6474-2.4516-10.4345-2.4946-14.0068
		C128.6048,103.0827,128.826,101.3024,129.0228,100.1696z"/>
	<path d="M10.7821,141.525l2.7314,81.7002c0.2271,6.7588,5.7754,12.084,12.4849,12.084c0.1421,0,0.2842-0.0019,0.4272-0.0068
		c6.8999-0.2305,12.3062-6.0108,12.0743-12.9102l-2.8955-86.6006c0.2456-1.6933,0.3628-3.7138,0.3505-6.1416
		c-0.9365-11.7529,1.5059-24.6543,4.2613-36.0586c-3.2124-1.8051-5.8574-3.5927-7.9981-5.2353
		c-9.4131-7.1968-12.4238-13.9346-12.7348-14.6777c-1.0494-2.4346-1.0884-5.1509-0.1006-7.6328
		c0.9858-2.482,2.8813-4.4312,5.3345-5.4888c1.2592-0.5435,2.5908-0.8189,3.9575-0.8189c3.8974,0,7.4663,2.2906,9.0898,5.8365
		l0.0391,0.0595c0.0927,0.1646,0.3584,0.6089,0.8584,1.274c0.9712,1.2861,2.7534,3.2968,5.7192,5.5727
		c0.2676,0.2046,0.5591,0.415,0.8486,0.625c0.8267-8.3257-2.5048-16.7226-9.3461-18.8247
		c-8.4082-2.5845-21.0166,1.3789-26.8311,15.7285c-7.8818,19.7793-10.0488,32.8125-8.6611,55.1348
		C1.68,134.4099,5.7899,139.1169,10.7821,141.525z"/>
	<path d="M117.7313,233.4215h10.0361l-4.1298-48.2509v-8.4161h-45.167v8.4278l-4.1289,48.2392h10.0361l1.9258-22.5h29.5019
		L117.7313,233.4215z M86.6747,206.5885l1.6982-19.834h25.3633l1.6982,19.834H86.6747z"/>
	<path d="M88.2245,90.0378c0.0102,0.0142,0.0185,0.0293,0.0288,0.0435c-2.5786-4.5127-7.8369-11.4707-18.3394-19.6064
		c-0.0234-0.0767-0.042-0.1548-0.0752-0.23c-4.7661-10.75-7.5366-20.5337-9.144-28.0435c2.0239-2.1724,3.6504-4.7807,4.7134-7.7534
		c1.7138-4.7935,1.6997-9.7837,0.2841-14.2935c3.0572-1.5747,5.2999-4.5942,5.7227-8.2671
		c0.6738-5.852-3.5244-11.1425-9.376-11.8164c-4.4516-0.5127-8.5722,1.7974-10.5893,5.5059
		c-6.1143-2.0757-12.5215-1.373-17.8223,1.4561l16.6768,1.9204c-0.0269,0.1645-0.0635,0.3261-0.0826,0.4936
		c-0.1406,1.2197-0.0581,2.4116,0.1954,3.5459l-21.6163-2.4892c-2.5092,2.3603-4.517,5.3295-5.7568,8.7959
		c-4.1826,11.6977,1.9102,24.5727,13.6084,28.7558c1.9165,0.6856,3.8648,1.0899,5.8013,1.2442
		c4.4428,6.706,11.0083,14.3129,20.5713,21.0571c8.4116,5.9267,13.8676,11.2534,17.4013,15.522
		c0.419,0.0673,0.8189,0.1406,1.2456,0.2055C84.3124,86.4835,86.64,87.8869,88.2245,90.0378z M52.5663,9.8429
		c0.0239-0.2095,0.0639-0.4136,0.103-0.6177c0.1904-0.9936,0.5537-1.915,1.0557-2.7387c1.6308-2.6768,4.7094-4.3145,8.0278-3.9322
		c4.5488,0.524,7.8115,4.6363,7.2881,9.1856c-0.315,2.7334-1.9292,4.9946-4.1509,6.2573c-1.4766,0.8389-3.2183,1.2407-5.0347,1.0317
		c-3.3545-0.3862-6.0034-2.7255-6.957-5.75C52.5585,12.2008,52.4286,11.0382,52.5663,9.8429z M47.2211,49.1666
		c3.6279-0.4902,7.0771-1.8598,10.0429-3.9658c1.3638,5.9092,3.4024,12.9766,6.4307,20.6939
		C56.4203,60.4874,51.0897,54.5895,47.2211,49.1666z"/>
	<path d="M90.1678,95.6549c0.0181,0.6001-0.0117,1.2056-0.1035,1.812c-0.4267,2.8169-2.0439,5.2251-4.2803,6.7544
		c0.7173,1.0147,1.6758,1.7803,2.8399,2.1719c3.665,1.2324,9.5586-16.3037,5.8935-17.5361
		c-2.0395-0.6851-4.271-0.0796-6.1308,1.4243c0.5639,0.812,0.9985,1.6875,1.2973,2.605
		C89.975,93.7794,90.14,94.7086,90.1678,95.6549z"/>
	<path d="M37.0653,68.112c-0.5264-0.6993-0.8433-1.2134-1.0015-1.4888c-0.0664-0.1192-0.1045-0.1914-0.1181-0.2183
		c-1.8042-3.9414-6.4361-5.7363-10.438-4.0112c-4.0567,1.748-5.9297,6.4541-4.1802,10.5107
		c0.438,1.045,3.4136,7.2173,12.1084,13.8648c2.0864,1.6006,4.5049,3.2226,7.2744,4.812
		c8.7554,5.0249,21.1055,9.7139,38.2705,12.3003c0.4053,0.0615,0.8076,0.0908,1.2056,0.0908c1.7241,0,3.3525-0.56,4.685-1.5264
		c1.6749-1.2143,2.8814-3.0712,3.2159-5.2773c0.0551-0.3662,0.0757-0.7285,0.081-1.0884c0.0225-1.5786-0.4189-3.0805-1.2187-4.355
		c-1.0391-1.6547-2.6729-2.9213-4.6573-3.4633c-0.2998-0.0821-0.6054-0.1519-0.9204-0.1997
		c-18.6753-2.834-29.8623-8.1563-36.4716-12.7413c-0.6119-0.4243-1.1993-0.8452-1.7349-1.2544
		C40.0033,71.6442,38.12,69.5099,37.0653,68.112z"/>
</g>
</svg>
